<svg width="1865" height="1981" viewBox="0 0 1865 1981" fill="none" xmlns="http://www.w3.org/2000/svg">
<path d="M109.406 39.7035C197.158 95.3804 224.139 196.93 251.299 291.287C281.684 396.727 301.549 505.009 314.451 613.931C330.808 751.959 336.107 890.985 338.411 1029.88C340.612 1161.46 342.993 1293.32 391.118 1417.88C460.004 1596.18 641.114 1708.37 824.426 1738.68C1023.07 1771.55 1224.71 1779.87 1425.71 1782.48C1460.78 1782.94 1866.16 1794.16 1864.19 1820.04C1860.2 1872.69 1858.2 1930.08 1847.65 1981C1665.47 1934.18 1461.58 1943.09 1273.55 1921.1C1041.99 1894.02 798.546 1872.15 589.124 1760.83C507.106 1717.23 441.752 1664.47 384.847 1590.62C326.328 1514.7 281.121 1429.12 245.744 1340.24C194.06 1210.33 162.779 1073.63 132.777 937.421C112.145 843.756 91.154 739.364 52.2698 651.177C52.1162 650.845 51.9881 650.537 51.8345 650.205C19.0683 580.704 -9.83257 415.235 3.19712 0C30.69 4.55655 69.9327 14.6168 109.431 39.6778L109.406 39.7035Z" fill="white" fill-opacity="0.05"/>
</svg>
