<svg width="1905" height="2422" viewBox="0 0 1905 2422" fill="none" xmlns="http://www.w3.org/2000/svg">
<g style="mix-blend-mode:soft-light">
<path d="M1468.68 49.9443C1511.97 192.707 1550.88 336.98 1590.32 481.125C1623.14 601.003 1645.74 750.012 1750.54 830.647C1795.75 865.41 1855.22 883.559 1892.44 928.356C1922.52 964.578 1890.62 1012.42 1862.08 1038.15C1822.37 1073.88 1774.81 1074.81 1724.72 1063.7C1667.79 1051.08 1612.13 1030.44 1563.6 998.112C1428.72 908.236 1394.62 740.284 1379.29 590.098C1360.65 407.709 1354.25 224.27 1321.49 43.5447C1370.56 45.6693 1419.61 47.8196 1468.68 49.9443Z" fill="white" fill-opacity="0.1"/>
<path d="M1028.39 42.2638C1028.88 42.2638 1029.37 42.2382 1029.85 42.2126C1019.38 226.112 993.425 406.812 964.397 588.459C948.27 689.931 936.725 794.552 959.968 895.897C993.016 1040.07 1105.11 1169.19 1249.67 1200.57C1330.33 1218.08 1412.98 1205.23 1492.88 1190C1568.93 1175.51 1645.11 1162.79 1720.86 1146.81C1778.79 1134.58 1826.5 1123.7 1859.09 1116.09C1854.81 1136.57 1850.57 1157.05 1846.29 1177.53C1820.28 1179.07 1781.07 1181.96 1733.66 1187.77C1558.05 1209.32 1387.9 1263.8 1212.63 1289.01C1119.27 1302.45 1023.09 1309 931.451 1286.68C826.728 1261.16 738.183 1194.27 691.235 1096.61C637.555 984.902 649.177 852.251 683.658 733.218C750.291 503.19 870.271 288.931 889.547 46.3083C935.854 44.9516 982.137 43.5949 1028.44 42.2382L1028.39 42.2638Z" fill="white" fill-opacity="0.1"/>
<path d="M53.0865 820.458C91.4842 982.982 129.088 1146.38 187.094 1303.3C230.919 1421.87 284.778 1537.88 366.079 1635.72C504.183 1801.88 729.962 1859.6 932.932 1898.95C1194.45 1949.66 1460.21 1972.21 1723.39 2012.07C1776.35 2020.08 1819.84 2027.48 1848.82 2032.55C1847.98 2070.94 1847.1 2109.34 1846.26 2147.74C1846.57 2133.35 1724.36 2097.85 1708.67 2093.11C1581.29 2054.61 1448.72 2049.36 1317.83 2029.99C1144.58 2004.31 970.818 1979.48 800.332 1938.65C641.903 1900.71 475.666 1855.3 334.209 1772.36C193.366 1689.78 100.674 1570.13 51.832 1415.62C-26.3969 1168.19 25.8752 923.082 53.1119 820.458H53.0865Z" fill="white" fill-opacity="0.1"/>
<path d="M55.6519 1575.61C79.6633 1612.4 118.343 1664.59 175.965 1716.4C285.245 1814.65 428.11 1862.16 566.495 1902.66C743.765 1954.52 925.258 1990.18 1107.14 2021.38C1186.23 2034.95 1264.13 2052.15 1344.2 2060.6C1426.22 2069.25 1509.16 2074.99 1589 2096.9C1642.91 2111.7 1694.8 2133.89 1742.82 2162.48C1767.19 2177 1790.59 2193.15 1812.78 2210.86C1827.81 2222.87 1862.11 2242.12 1869.25 2260.4C1899.28 2337.06 1886.74 2371.75 1874.37 2388.39C1838.07 2437.28 1751.88 2421.28 1701.81 2411.3C1618.87 2394.76 1538.85 2364.51 1460.88 2332.38C1459.14 2331.66 1457.37 2330.92 1455.63 2330.2C1443.58 2325.19 1431.37 2319.96 1421.33 2311.59C1411.48 2303.33 1404.26 2292.45 1396.04 2282.54C1327.38 2199.63 1205.48 2182.71 1105.98 2167.14C917.579 2137.65 728.252 2108.78 543.61 2060.88C447.539 2035.97 353.081 2005.87 260.389 1970.49C209.985 1950.96 160.401 1929.28 112.199 1904.83C87.7779 1892.44 62.973 1878.62 46.6412 1855.99C-19.0189 1764.86 34.7379 1624.1 55.6007 1575.69L55.6519 1575.61Z" fill="white" fill-opacity="0.1"/>
</g>
<g style="mix-blend-mode:soft-light">
<path d="M1691.16 56.2406C1694.05 59.466 1696.67 63.3058 1699 68.0159C1707.6 85.3205 1712.46 104.212 1717.37 122.797C1730.66 173.072 1744.87 223.296 1765.68 270.961C1797.34 343.507 1843.96 409.193 1870.81 483.633C1900.43 565.779 1904.58 655.808 1890.83 742.05C1886.4 769.901 1879.93 797.982 1865.51 822.199C1859.68 832.003 1851.97 841.525 1841.22 845.288C1819.13 853.045 1797.24 833.897 1782.73 815.543C1731.4 750.676 1696.56 674.214 1669.15 596.164C1639.53 511.868 1618.03 425.012 1596.55 338.285C1572.62 241.522 1548.6 144.453 1537.42 45.4124C1536.91 40.8559 1536.6 35.7106 1539.67 32.306C1542.02 29.695 1545.74 28.8758 1549.22 28.3126C1585.7 22.169 1623.71 25.7016 1658.55 38.0913C1672.35 43.0062 1682.97 47.1276 1691.19 56.2662L1691.16 56.2406Z" fill="white" fill-opacity="0.05"/>
<path d="M109.405 39.7033C197.157 95.38 224.138 196.929 251.298 291.285C281.683 396.725 301.547 505.007 314.449 613.928C330.807 751.955 336.105 890.981 338.409 1029.88C340.611 1161.45 342.991 1293.31 391.117 1417.87C460.002 1596.17 641.111 1708.37 824.422 1738.67C1023.07 1771.54 1224.71 1779.86 1425.71 1782.47C1460.78 1782.93 1866.15 1794.15 1864.18 1820.03C1860.19 1872.68 1858.19 1930.07 1847.64 1980.99C1665.46 1934.17 1461.57 1943.08 1273.55 1921.09C1041.98 1894.01 798.542 1872.15 589.121 1760.82C507.103 1717.22 441.75 1664.46 384.845 1590.61C326.327 1514.69 281.12 1429.11 245.743 1340.23C194.059 1210.32 162.778 1073.63 132.777 937.417C112.144 843.752 91.1536 739.361 52.2695 651.174C52.1159 650.841 51.9878 650.534 51.8342 650.202C19.0682 580.702 -9.83253 415.233 3.1971 0C30.6899 4.55653 69.9324 14.6167 109.431 39.6777L109.405 39.7033Z" fill="white" fill-opacity="0.05"/>
<path d="M58.2034 1916.07C57.9474 1921.01 103.794 1942.67 109.272 1945.64C127.447 1955.55 145.725 1965.38 164.232 1974.69C320.818 2053.64 492.405 2099.03 664.299 2130.67C757.068 2147.74 850.425 2161.36 943.629 2175.92C1031.23 2189.62 1129.01 2195.25 1208.88 2234.78C1280.12 2270.05 1327.07 2319.84 1354.79 2355.09C915.343 2352.53 475.919 2349.97 36.4702 2347.41C43.7145 2203.62 50.9845 2059.86 58.2289 1916.07H58.2034Z" fill="white" fill-opacity="0.05"/>
</g>
</svg>
