<svg width="362" height="822" viewBox="0 0 362 822" fill="none" xmlns="http://www.w3.org/2000/svg">
<path d="M154.127 30.8915C157.021 34.1181 159.633 37.9593 161.964 42.6712C170.568 59.982 175.433 78.8806 180.35 97.4719C193.64 147.766 207.853 198.008 228.672 245.69C260.349 318.263 306.981 383.972 333.843 458.44C363.472 540.616 367.62 630.678 353.869 716.951C349.438 744.812 342.96 772.904 328.542 797.129C322.704 806.937 314.996 816.463 304.241 820.228C282.141 827.987 260.246 808.832 245.727 790.471C194.383 725.581 159.531 649.09 132.105 571.012C102.476 486.685 80.9659 399.798 59.4809 313.039C35.5376 216.241 11.5172 119.136 0.326565 20.0594C-0.185592 15.5012 -0.492874 10.354 2.58007 6.94818C4.93599 4.33618 8.64939 3.51674 12.1321 2.95337C48.6232 -3.19252 86.6508 0.341385 121.503 12.7356C135.306 17.6523 145.933 21.7752 154.153 30.9172L154.127 30.8915Z" fill="white" fill-opacity="0.05"/>
</svg>
