<svg width="81" height="81" viewBox="0 0 81 81" fill="none" xmlns="http://www.w3.org/2000/svg">
<rect width="80.9967" height="80.9967" rx="8.91978" fill="#1C213D"/>
<path fill-rule="evenodd" clip-rule="evenodd" d="M40.4981 24.0759C38.7097 24.0759 37.2599 25.5257 37.2599 27.3141H28.9332C28.9332 20.9269 34.111 15.7491 40.4981 15.7491C46.8853 15.7491 52.0631 20.9269 52.0631 27.3141C52.0631 33.7012 46.8853 38.879 40.4981 38.879V30.5523C42.2865 30.5523 43.7363 29.1025 43.7363 27.3141C43.7363 25.5257 42.2865 24.0759 40.4981 24.0759ZM56.9203 40.4981C56.9203 38.7097 55.4705 37.2599 53.6822 37.2599V28.9332C60.0694 28.9332 65.2471 34.111 65.2471 40.4981C65.2471 46.8853 60.0694 52.0631 53.6822 52.0631C47.2949 52.0631 42.1172 46.8853 42.1172 40.4981H50.444C50.444 42.2865 51.8938 43.7363 53.6822 43.7363C55.4705 43.7363 56.9203 42.2865 56.9203 40.4981ZM27.3141 43.7363C25.5257 43.7363 24.0759 42.2865 24.0759 40.4981C24.0759 38.7097 25.5257 37.2599 27.3141 37.2599C29.1025 37.2599 30.5523 38.7097 30.5523 40.4981H38.879C38.879 34.111 33.7012 28.9332 27.3141 28.9332C20.9269 28.9332 15.7491 34.111 15.7491 40.4981C15.7491 46.8853 20.9269 52.0631 27.3141 52.0631V43.7363ZM40.4981 56.9203C42.2865 56.9203 43.7363 55.4705 43.7363 53.6822H52.0631C52.0631 60.0694 46.8853 65.2471 40.4981 65.2471C34.111 65.2471 28.9332 60.0694 28.9332 53.6822C28.9332 47.2949 34.111 42.1172 40.4981 42.1172V50.444C38.7097 50.444 37.2599 51.8938 37.2599 53.6822C37.2599 55.4705 38.7097 56.9203 40.4981 56.9203Z" fill="url(#paint0_linear_10466_16914)"/>
<defs>
<linearGradient id="paint0_linear_10466_16914" x1="40.4981" y1="15.7491" x2="40.4981" y2="77.6216" gradientUnits="userSpaceOnUse">
<stop stop-color="white"/>
<stop offset="1" stop-color="white" stop-opacity="0"/>
</linearGradient>
</defs>
</svg>
