<svg width="426" height="145" viewBox="0 0 426 145" fill="none" xmlns="http://www.w3.org/2000/svg">
<g clip-path="url(#clip0_10131_19154)">
<path fill-rule="evenodd" clip-rule="evenodd" d="M57.401 26.665C52.1501 26.665 47.1144 28.7001 43.4015 32.3224L25.4853 49.8015V57.8023C25.4853 63.4549 27.974 68.5403 31.9408 72.0725C27.974 75.6048 25.4853 80.6902 25.4853 86.3428V94.3436L43.4015 111.823C47.1144 115.445 52.1501 117.48 57.401 117.48C63.1949 117.48 68.4075 115.052 72.028 111.182C75.6486 115.052 80.8611 117.48 86.655 117.48C91.9059 117.48 96.9416 115.445 100.655 111.823L118.571 94.3436V86.3428C118.571 80.6902 116.082 75.6048 112.115 72.0725C116.082 68.5403 118.571 63.4549 118.571 57.8023V49.8015L100.655 32.3224C96.9416 28.7001 91.9059 26.665 86.655 26.665C80.8611 26.665 75.6486 29.0931 72.028 32.9631C68.4075 29.0931 63.1949 26.665 57.401 26.665ZM85.4295 72.0725C85.2063 71.8739 84.9874 71.6698 84.7728 71.4604L72.028 59.0265L59.2832 71.4604C59.0687 71.6698 58.8497 71.8739 58.6265 72.0725C58.8497 72.2712 59.0687 72.4753 59.2832 72.6846L72.028 85.1186L84.7728 72.6846C84.9874 72.4753 85.2063 72.2712 85.4295 72.0725ZM77.1994 94.3436V98.1646C77.1994 103.259 81.4329 107.39 86.655 107.39C89.1627 107.39 91.5678 106.418 93.3411 104.688L108.228 90.1638V86.3428C108.228 81.248 103.994 77.1178 98.7724 77.1178C96.2647 77.1178 93.8596 78.0897 92.0863 79.8197L77.1994 94.3436ZM66.8567 94.3436L51.9697 79.8197C50.1965 78.0897 47.7915 77.1178 45.2837 77.1178C40.0615 77.1178 35.8281 81.248 35.8281 86.3428V90.1638L50.7149 104.688C52.4882 106.418 54.8933 107.39 57.401 107.39C62.6231 107.39 66.8567 103.259 66.8567 98.1646V94.3436ZM66.8567 45.9805V49.8015L51.9697 64.3253C50.1965 66.0554 47.7915 67.0273 45.2837 67.0273C40.0615 67.0273 35.8281 62.897 35.8281 57.8023V53.9813L50.7149 39.4575C52.4882 37.7275 54.8933 36.7556 57.401 36.7556C62.6231 36.7556 66.8567 40.8857 66.8567 45.9805ZM92.0863 64.3253L77.1994 49.8015V45.9805C77.1994 40.8857 81.4329 36.7556 86.655 36.7556C89.1627 36.7556 91.5678 37.7275 93.3411 39.4575L108.228 53.9813V57.8023C108.228 62.897 103.994 67.0273 98.7724 67.0273C96.2647 67.0273 93.8596 66.0554 92.0863 64.3253Z" fill="black"/>
</g>
<path d="M173.081 48.1688V94.0347H162.843V48.1688H173.081ZM187.036 48.1688V56.1386H149.171V48.1688H187.036ZM201.212 45.6487V94.0347H191.383V45.6487H201.212ZM199.92 75.7954L197.463 75.8584C197.463 73.4643 197.757 71.2697 198.345 69.2747C198.954 67.2586 199.815 65.505 200.928 64.0139C202.041 62.5229 203.375 61.3678 204.929 60.5488C206.504 59.7297 208.236 59.3202 210.127 59.3202C211.807 59.3202 213.34 59.5617 214.726 60.0448C216.112 60.5278 217.309 61.2943 218.317 62.3444C219.325 63.3944 220.102 64.77 220.648 66.471C221.194 68.1721 221.467 70.2407 221.467 72.6768V94.0347H211.576V72.6138C211.576 71.1647 211.366 70.0307 210.946 69.2117C210.547 68.3926 209.959 67.8151 209.182 67.4791C208.425 67.1431 207.501 66.9751 206.409 66.9751C205.128 66.9751 204.068 67.2061 203.228 67.6681C202.388 68.1091 201.726 68.7286 201.243 69.5267C200.76 70.3247 200.414 71.2592 200.204 72.3303C200.015 73.4013 199.92 74.5564 199.92 75.7954ZM243.959 94.6647C241.25 94.6647 238.824 94.2342 236.682 93.3732C234.54 92.5121 232.724 91.3256 231.232 89.8135C229.762 88.2805 228.639 86.5164 227.862 84.5213C227.085 82.5262 226.696 80.3946 226.696 78.1265V76.9295C226.696 74.3884 227.053 72.0468 227.767 69.9047C228.481 67.7626 229.521 65.904 230.886 64.3289C232.272 62.7329 233.973 61.5043 235.989 60.6433C238.005 59.7613 240.305 59.3202 242.888 59.3202C245.303 59.3202 247.456 59.7192 249.346 60.5173C251.236 61.2943 252.832 62.4179 254.134 63.8879C255.436 65.337 256.423 67.0906 257.095 69.1486C257.788 71.1857 258.135 73.4748 258.135 76.0159V80.0481H230.665V73.7163H248.495V72.9603C248.495 71.7633 248.275 70.7132 247.834 69.8102C247.414 68.9071 246.784 68.2141 245.944 67.7311C245.125 67.2271 244.085 66.9751 242.825 66.9751C241.628 66.9751 240.63 67.2271 239.832 67.7311C239.034 68.2351 238.394 68.9491 237.911 69.8732C237.449 70.7762 237.113 71.8368 236.903 73.0548C236.693 74.2519 236.588 75.5434 236.588 76.9295V78.1265C236.588 79.4496 236.766 80.6571 237.123 81.7492C237.48 82.8412 238.005 83.7758 238.698 84.5528C239.391 85.3298 240.231 85.9389 241.218 86.3799C242.205 86.8209 243.329 87.0414 244.589 87.0414C246.143 87.0414 247.624 86.7474 249.031 86.1594C250.438 85.5503 251.656 84.6053 252.685 83.3242L257.284 88.585C256.591 89.593 255.614 90.5696 254.354 91.5146C253.115 92.4386 251.624 93.1947 249.881 93.7827C248.138 94.3707 246.164 94.6647 243.959 94.6647ZM272.783 67.8886V94.0347H262.954V59.9503H272.184L272.783 67.8886ZM282.958 59.6982L282.8 68.8651C282.38 68.8021 281.834 68.7496 281.162 68.7076C280.49 68.6446 279.912 68.6131 279.429 68.6131C278.169 68.6131 277.077 68.7706 276.153 69.0856C275.25 69.3797 274.494 69.8207 273.885 70.4087C273.297 70.9967 272.856 71.7318 272.562 72.6138C272.268 73.4748 272.121 74.4724 272.121 75.6064L270.263 74.6929C270.263 72.4458 270.483 70.3877 270.924 68.5186C271.365 66.6495 272.006 65.0325 272.846 63.6674C273.686 62.2814 274.715 61.2103 275.933 60.4543C277.151 59.6982 278.537 59.3202 280.091 59.3202C280.595 59.3202 281.11 59.3517 281.635 59.4147C282.16 59.4777 282.601 59.5722 282.958 59.6982ZM304.032 85.9074V71.2907C304.032 70.2617 303.875 69.3797 303.56 68.6446C303.244 67.9096 302.751 67.3321 302.079 66.9121C301.407 66.492 300.535 66.282 299.464 66.282C298.561 66.282 297.774 66.4395 297.102 66.7545C296.451 67.0696 295.947 67.5211 295.59 68.1091C295.254 68.6971 295.086 69.4217 295.086 70.2827H285.257C285.257 68.7496 285.604 67.3216 286.297 65.9985C286.99 64.6755 287.977 63.5099 289.258 62.5019C290.56 61.4938 292.114 60.7168 293.92 60.1708C295.726 59.6037 297.753 59.3202 300 59.3202C302.667 59.3202 305.04 59.7718 307.119 60.6748C309.219 61.5568 310.878 62.8904 312.096 64.6755C313.314 66.4395 313.923 68.6656 313.923 71.3537V85.6238C313.923 87.6819 314.039 89.299 314.27 90.475C314.522 91.6301 314.879 92.6381 315.341 93.4992V94.0347H305.418C304.956 93.0477 304.61 91.8296 304.379 90.3805C304.148 88.9105 304.032 87.4194 304.032 85.9074ZM305.261 73.2438L305.324 78.662H300.441C299.349 78.662 298.404 78.7986 297.606 79.0716C296.829 79.3446 296.199 79.7226 295.716 80.2056C295.233 80.6676 294.876 81.2137 294.645 81.8437C294.435 82.4527 294.33 83.1247 294.33 83.8598C294.33 84.5528 294.498 85.1828 294.834 85.7498C295.17 86.2959 295.632 86.7264 296.22 87.0414C296.808 87.3564 297.49 87.5139 298.267 87.5139C299.548 87.5139 300.64 87.2619 301.543 86.7579C302.467 86.2539 303.181 85.6448 303.686 84.9308C304.19 84.1958 304.442 83.5133 304.442 82.8832L306.804 86.9784C306.426 87.8184 305.964 88.69 305.418 89.593C304.872 90.475 304.179 91.3046 303.339 92.0816C302.499 92.8376 301.48 93.4572 300.283 93.9402C299.107 94.4232 297.69 94.6647 296.031 94.6647C293.889 94.6647 291.946 94.2342 290.203 93.3732C288.46 92.4911 287.063 91.2836 286.013 89.7505C284.984 88.2175 284.47 86.4534 284.47 84.4583C284.47 82.6732 284.795 81.0877 285.446 79.7016C286.097 78.3155 287.074 77.1395 288.376 76.1734C289.699 75.2074 291.358 74.4829 293.353 73.9999C295.348 73.4958 297.679 73.2438 300.346 73.2438H305.261ZM330.241 66.5025V107.139H320.413V59.9503H329.58L330.241 66.5025ZM351.505 76.6145V77.276C351.505 79.7541 351.221 82.0537 350.654 84.1748C350.087 86.2749 349.236 88.1124 348.102 89.6875C346.989 91.2626 345.614 92.4911 343.976 93.3732C342.338 94.2342 340.437 94.6647 338.274 94.6647C336.216 94.6647 334.431 94.2342 332.919 93.3732C331.428 92.4911 330.168 91.2731 329.139 89.719C328.131 88.144 327.312 86.3484 326.681 84.3323C326.072 82.2952 325.6 80.1216 325.264 77.8115V76.52C325.6 74.0629 326.083 71.7843 326.713 69.6842C327.343 67.5841 328.162 65.7675 329.17 64.2344C330.178 62.6804 331.428 61.4728 332.919 60.6118C334.41 59.7508 336.184 59.3202 338.242 59.3202C340.385 59.3202 342.285 59.7297 343.944 60.5488C345.603 61.3678 346.989 62.5439 348.102 64.0769C349.236 65.589 350.087 67.4056 350.654 69.5267C351.221 71.6478 351.505 74.0104 351.505 76.6145ZM341.645 77.276V76.6145C341.645 75.2284 341.54 73.9579 341.33 72.8028C341.12 71.6268 340.784 70.6082 340.322 69.7472C339.86 68.8651 339.251 68.1826 338.494 67.6996C337.738 67.2166 336.814 66.9751 335.722 66.9751C334.546 66.9751 333.549 67.1641 332.73 67.5421C331.911 67.9201 331.249 68.4766 330.745 69.2117C330.241 69.9257 329.874 70.8077 329.643 71.8578C329.433 72.9078 329.317 74.1049 329.296 75.4489V78.9141C329.317 80.4891 329.538 81.8962 329.958 83.1352C330.399 84.3533 331.081 85.3088 332.005 86.0019C332.95 86.6739 334.21 87.0099 335.785 87.0099C336.898 87.0099 337.822 86.7684 338.557 86.2854C339.314 85.7814 339.912 85.0778 340.353 84.1748C340.815 83.2717 341.141 82.2322 341.33 81.0562C341.54 79.8801 341.645 78.62 341.645 77.276ZM374.059 59.9503V66.8491H353.836V59.9503H374.059ZM358.466 51.5079H368.326V83.3557C368.326 84.3008 368.442 85.0253 368.673 85.5293C368.904 86.0334 369.282 86.3904 369.807 86.6004C370.332 86.7894 371.004 86.8839 371.823 86.8839C372.411 86.8839 372.915 86.8629 373.335 86.8209C373.755 86.7789 374.143 86.7264 374.5 86.6634V93.7827C373.66 94.0557 372.768 94.2657 371.823 94.4127C370.878 94.5807 369.849 94.6647 368.736 94.6647C366.615 94.6647 364.777 94.3182 363.223 93.6252C361.69 92.9322 360.514 91.8401 359.695 90.349C358.876 88.837 358.466 86.8734 358.466 84.4583V51.5079ZM389.149 45.6487V94.0347H379.289V45.6487H389.149ZM406.506 90.097L415.421 59.9503H426.005L412.302 99.1379C412.008 99.999 411.609 100.923 411.105 101.91C410.622 102.897 409.96 103.842 409.12 104.745C408.301 105.648 407.251 106.383 405.97 106.95C404.689 107.517 403.114 107.801 401.245 107.801C400.3 107.801 399.565 107.748 399.04 107.643C398.536 107.559 397.864 107.412 397.024 107.202L396.992 100.051C397.265 100.051 397.507 100.051 397.717 100.051C397.948 100.072 398.179 100.083 398.41 100.083C399.586 100.083 400.531 99.9569 401.245 99.7049C401.98 99.4529 402.547 99.0749 402.946 98.5709C403.366 98.0879 403.702 97.4683 403.954 96.7123L406.506 90.097ZM403.513 59.9503L410.57 84.2063L411.767 94.6332L405.12 94.9797L392.929 59.9503H403.513Z" fill="black"/>
<defs>
<clipPath id="clip0_10131_19154">
<rect width="46.541" height="46.541" fill="white" transform="translate(25.4853 25.4931) scale(2.00007)"/>
</clipPath>
</defs>
</svg>
