<svg width="690" height="514" viewBox="0 0 690 514" fill="none" xmlns="http://www.w3.org/2000/svg">
<path d="M689.817 451.692H0V452.037H689.817V451.692Z" fill="#EBEBEB"/>
<path d="M612.42 464.826H566.726V465.171H612.42V464.826Z" fill="#EBEBEB"/>
<path d="M250.179 469.504H181.391V469.849H250.179V469.504Z" fill="#EBEBEB"/>
<path d="M565.345 477.645H524.605V477.99H565.345V477.645Z" fill="#EBEBEB"/>
<path d="M102.187 475.324H72.3873V475.669H102.187V475.324Z" fill="#EBEBEB"/>
<path d="M167.383 475.324H114.446V475.669H167.383V475.324Z" fill="#EBEBEB"/>
<path d="M456.958 461.089H327.714V461.434H456.958V461.089Z" fill="#EBEBEB"/>
<path d="M326.984 390.161H60.5903C58.5034 390.157 56.5032 389.325 55.0288 387.848C53.5544 386.371 52.7264 384.37 52.7264 382.283V7.80873C52.7445 5.73379 53.5806 3.74982 55.053 2.28774C56.5255 0.825653 58.5153 0.00355447 60.5903 0H326.984C329.073 0 331.077 0.829971 332.554 2.30733C334.032 3.78469 334.862 5.78841 334.862 7.87771V382.283C334.862 384.372 334.032 386.376 332.554 387.853C331.077 389.331 329.073 390.161 326.984 390.161ZM60.5903 0.275928C58.5949 0.279583 56.6824 1.07483 55.2727 2.4871C53.863 3.89938 53.0713 5.81329 53.0713 7.80873V382.283C53.0713 384.278 53.863 386.192 55.2727 387.605C56.6824 389.017 58.5949 389.812 60.5903 389.816H326.984C328.981 389.812 330.894 389.017 332.306 387.605C333.718 386.193 334.513 384.28 334.517 382.283V7.80873C334.513 5.81203 333.718 3.89815 332.306 2.48626C330.894 1.07438 328.981 0.279575 326.984 0.275928H60.5903Z" fill="#EBEBEB"/>
<path d="M625.398 390.161H358.991C356.902 390.157 354.901 389.326 353.424 387.849C351.948 386.373 351.117 384.371 351.113 382.283V7.80873C351.135 5.73254 351.974 3.74857 353.448 2.28687C354.923 0.825171 356.914 0.00351571 358.991 0H625.398C627.471 0.0071803 629.457 0.830884 630.926 2.29258C632.396 3.75427 633.23 5.73618 633.248 7.80873V382.283C633.248 384.367 632.422 386.367 630.951 387.844C629.479 389.32 627.482 390.153 625.398 390.161ZM358.991 0.275928C356.994 0.279575 355.08 1.07438 353.668 2.48626C352.256 3.89815 351.461 5.81203 351.458 7.80873V382.283C351.461 384.28 352.256 386.193 353.668 387.605C355.08 389.017 356.994 389.812 358.991 389.816H625.398C627.395 389.812 629.309 389.017 630.72 387.605C632.132 386.193 632.927 384.28 632.931 382.283V7.80873C632.927 5.81203 632.132 3.89815 630.72 2.48626C629.309 1.07438 627.395 0.279575 625.398 0.275928H358.991Z" fill="#EBEBEB"/>
<path d="M149.98 220.26L524.151 220.26V37.5135L149.98 37.5135V220.26Z" fill="#E6E6E6"/>
<path d="M142.957 220.26L520.866 220.26V37.5135L142.957 37.5135V220.26Z" fill="#F0F0F0"/>
<path d="M149.98 233.282L524.151 233.282V220.258L149.98 220.258V233.282Z" fill="#E6E6E6"/>
<path d="M131.289 233.282L509.198 233.282V220.258L131.289 220.258V233.282Z" fill="#F0F0F0"/>
<path d="M511.075 210.465V47.337L152.784 47.337V210.465L511.075 210.465Z" fill="#FAFAFA"/>
<path d="M251.329 210.465L235.629 47.337H208.45L224.15 210.465H251.329Z" fill="white"/>
<path d="M460.543 210.465L444.829 47.337H417.65L433.364 210.465H460.543Z" fill="white"/>
<path d="M506.523 155.17C506.722 155.166 506.911 155.085 507.05 154.943C507.19 154.801 507.268 154.61 507.268 154.411V53.6977C507.282 53.5904 507.274 53.4813 507.243 53.3776C507.212 53.2739 507.159 53.178 507.087 53.0965C507.016 53.0149 506.928 52.9496 506.83 52.9048C506.731 52.86 506.624 52.8368 506.516 52.8368C506.408 52.8368 506.301 52.86 506.202 52.9048C506.103 52.9496 506.016 53.0149 505.944 53.0965C505.873 53.178 505.82 53.2739 505.789 53.3776C505.758 53.4813 505.749 53.5904 505.764 53.6977V154.411C505.764 154.511 505.784 154.609 505.822 154.701C505.86 154.793 505.916 154.877 505.986 154.948C506.057 155.018 506.14 155.074 506.232 155.112C506.324 155.15 506.423 155.17 506.523 155.17Z" fill="#F0F0F0"/>
<path d="M218.321 210.465L202.607 47.337H192.011L207.725 210.465H218.321Z" fill="white"/>
<path d="M154.034 210.465V47.337H152.793L152.793 210.465H154.034Z" fill="#E6E6E6"/>
<path opacity="0.5" d="M140.661 65.1194H514.832L515.728 51.1437H141.558L140.661 65.1194Z" fill="#838383"/>
<path opacity="0.5" d="M140.661 88.0914H514.832L515.728 74.1157H141.558L140.661 88.0914Z" fill="#838383"/>
<path opacity="0.5" d="M140.661 111.06H514.832L515.728 97.0847H141.558L140.661 111.06Z" fill="#838383"/>
<path opacity="0.5" d="M140.661 134.031H514.832L515.728 120.056H141.558L140.661 134.031Z" fill="#838383"/>
<path opacity="0.5" d="M140.661 157.002H514.832L515.728 143.027H141.558L140.661 157.002Z" fill="#838383"/>
<path opacity="0.5" d="M140.661 179.974H514.832L515.728 165.999H141.558L140.661 179.974Z" fill="#838383"/>
<path d="M365.115 451.692H388.652V294.359H365.115V451.692Z" fill="#E6E6E6"/>
<path d="M371.292 451.693H365.112V430.267H377.791L371.292 451.693Z" fill="#F0F0F0"/>
<path d="M582.168 451.692H605.704V294.359H582.168V451.692Z" fill="#E6E6E6"/>
<path d="M365.093 438.544H587.545V294.359L365.093 294.359L365.093 438.544Z" fill="#F0F0F0"/>
<path d="M369.893 340.274H582.743V300.733H369.893V340.274Z" fill="#E6E6E6"/>
<path d="M406.992 313.024H541.506C547.549 313.024 553.316 308.154 557.468 299.531H391.029C395.182 308.154 400.949 313.024 406.992 313.024Z" fill="#F0F0F0"/>
<path d="M581.36 451.693H587.554V430.267H574.875L581.36 451.693Z" fill="#F0F0F0"/>
<path d="M369.893 386.215H582.743V346.674H369.893V386.215Z" fill="#E6E6E6"/>
<path d="M406.992 358.968H541.506C547.549 358.968 553.316 354.084 557.468 345.475H391.029C395.182 354.084 400.949 358.968 406.992 358.968Z" fill="#F0F0F0"/>
<path d="M369.893 432.157H582.743V392.616H369.893V432.157Z" fill="#E6E6E6"/>
<path d="M406.992 404.895H541.506C547.549 404.895 553.316 400.012 557.468 391.403H391.029C395.182 400.012 400.949 404.895 406.992 404.895Z" fill="#F0F0F0"/>
<path d="M210.126 245.809H182.837C179.377 245.809 176.573 248.613 176.573 252.072V262.558C176.573 266.017 179.377 268.821 182.837 268.821H210.126C213.585 268.821 216.389 266.017 216.389 262.558V252.072C216.389 248.613 213.585 245.809 210.126 245.809Z" fill="#F5F5F5"/>
<path d="M259.943 245.809H232.654C229.195 245.809 226.39 248.613 226.39 252.072V262.558C226.39 266.017 229.195 268.821 232.654 268.821H259.943C263.402 268.821 266.206 266.017 266.206 262.558V252.072C266.206 248.613 263.402 245.809 259.943 245.809Z" fill="#F5F5F5"/>
<path d="M113.789 241.202C113.789 241.202 114.741 268.795 151.136 268.795C187.531 268.795 188.469 241.202 188.469 241.202H113.789Z" fill="#F0F0F0"/>
<path d="M270.319 442.699H310.383V277.515H270.319V442.699Z" fill="#F0F0F0"/>
<path d="M105.14 451.692H302.703V442.697L105.14 442.697V451.692Z" fill="#F0F0F0"/>
<path d="M270.311 277.5H97.4288V442.683H270.311V277.5Z" fill="#F5F5F5"/>
<path d="M254.58 341.061H113.195V379.138H254.58V341.061Z" fill="#F0F0F0"/>
<path d="M254.58 387.637H113.195V425.715H254.58V387.637Z" fill="#F0F0F0"/>
<path d="M167.278 346.164H200.459C201.303 346.16 202.111 345.823 202.708 345.226C203.305 344.629 203.642 343.821 203.646 342.977C203.646 342.13 203.31 341.318 202.713 340.718C202.116 340.118 201.305 339.78 200.459 339.776H167.278C166.432 339.78 165.621 340.118 165.024 340.718C164.427 341.318 164.091 342.13 164.091 342.977C164.095 343.821 164.432 344.629 165.029 345.226C165.626 345.823 166.434 346.16 167.278 346.164Z" fill="#F5F5F5"/>
<path d="M254.58 294.5H113.195V332.578H254.58V294.5Z" fill="#F0F0F0"/>
<path d="M167.278 299.601H200.459C201.305 299.597 202.116 299.258 202.713 298.659C203.31 298.059 203.646 297.247 203.646 296.4C203.642 295.556 203.305 294.748 202.708 294.151C202.111 293.554 201.303 293.217 200.459 293.213H167.278C166.434 293.217 165.626 293.554 165.029 294.151C164.432 294.748 164.095 295.556 164.091 296.4C164.091 297.247 164.427 298.059 165.024 298.659C165.621 299.258 166.432 299.597 167.278 299.601Z" fill="#F5F5F5"/>
<path d="M167.281 392.728H200.461C202.221 392.728 203.648 391.301 203.648 389.541V389.527C203.648 387.767 202.221 386.34 200.461 386.34H167.281C165.521 386.34 164.094 387.767 164.094 389.527V389.541C164.094 391.301 165.521 392.728 167.281 392.728Z" fill="#F5F5F5"/>
<path d="M92.0895 277.5H270.311V268.808H92.0895V277.5Z" fill="#F0F0F0"/>
<path d="M315.977 268.822H270.311V277.513H315.977V268.822Z" fill="#E6E6E6"/>
<path d="M537.734 176.856L527.842 161.873C528.187 248.597 529.65 253.591 529.608 268.519H537.541C538.645 195.909 541.708 195.481 537.734 176.856Z" fill="#838383"/>
<path d="M533.923 294.346C556.673 294.346 575.864 285.116 580.527 272.631C581.72 269.214 583.352 265.968 585.383 262.973L585.742 262.463H482.076L482.435 262.973C484.475 265.965 486.113 269.212 487.305 272.631C491.968 285.116 511.159 294.346 533.923 294.346Z" fill="#FAFAFA"/>
<path d="M481.848 265.551H585.928C587.333 265.547 588.698 265.078 589.809 264.217C590.92 263.356 591.714 262.151 592.067 260.791C592.307 259.854 592.329 258.876 592.133 257.929C591.937 256.983 591.527 256.094 590.935 255.33C590.342 254.566 589.584 253.947 588.716 253.521C587.848 253.095 586.895 252.873 585.928 252.872H481.848C480.881 252.87 479.926 253.091 479.057 253.516C478.188 253.941 477.428 254.56 476.835 255.324C476.242 256.089 475.832 256.979 475.637 257.927C475.442 258.874 475.467 259.854 475.709 260.791C476.058 262.153 476.851 263.361 477.963 264.223C479.075 265.085 480.442 265.552 481.848 265.551Z" fill="#F0F0F0"/>
<path d="M534.723 164.784C532.75 141.33 508.621 139.012 463.479 127.961C485.622 191.769 542.187 253.122 534.723 164.784Z" fill="#838383"/>
<path d="M528.202 152.464C524.863 133.839 528.353 114.097 580.628 116.028C567.535 167.309 543.736 238.94 528.202 152.464Z" fill="#838383"/>
<path d="M530.562 197.937C532.148 176.484 548.676 151.029 602.786 169.337C578.725 210.974 526.726 249.715 530.562 197.937Z" fill="#838383"/>
<path d="M344.905 513.998C492.64 513.998 612.403 507.005 612.403 498.38C612.403 489.755 492.64 482.763 344.905 482.763C197.171 482.763 77.4081 489.755 77.4081 498.38C77.4081 507.005 197.171 513.998 344.905 513.998Z" fill="#F5F5F5"/>
<path d="M185.9 305.231H355.195V296.097L185.9 296.097V305.231Z" fill="#09C973"/>
<path opacity="0.5" d="M185.9 305.231H355.195V296.097L185.9 296.097V305.231Z" fill="white"/>
<path d="M185.899 296.096H108.378V305.229H185.899V296.096Z" fill="#09C973"/>
<path opacity="0.5" d="M185.899 296.096H108.378V305.229H185.899V296.096Z" fill="white"/>
<path opacity="0.2" d="M185.899 296.096H108.378V305.229H185.899V296.096Z" fill="black"/>
<path d="M113.642 314.971H350.001L352.029 305.231H111.6L113.642 314.971Z" fill="#09C973"/>
<path opacity="0.6" d="M113.642 314.971H350.001L352.029 305.231H111.6L113.642 314.971Z" fill="black"/>
<path d="M325.443 314.972V493.262H320.103L313.371 314.972H325.443Z" fill="#09C973"/>
<path opacity="0.5" d="M325.443 314.972V493.262H320.103L313.371 314.972H325.443Z" fill="white"/>
<path d="M262.346 314.972V493.262H257.007L250.274 314.972H262.346Z" fill="#09C973"/>
<path opacity="0.5" d="M262.346 314.972V493.262H257.007L250.274 314.972H262.346Z" fill="white"/>
<path d="M125.536 314.972V493.262H130.875L137.608 314.972H125.536Z" fill="#09C973"/>
<path opacity="0.5" d="M125.536 314.972V493.262H130.875L137.608 314.972H125.536Z" fill="white"/>
<path d="M188.632 314.972V493.262H193.972L200.704 314.972H188.632Z" fill="#09C973"/>
<path opacity="0.5" d="M188.632 314.972V493.262H193.972L200.704 314.972H188.632Z" fill="white"/>
<path d="M548.139 181.477C551.16 187.368 553.933 193.245 556.596 199.26C559.258 205.275 561.728 211.36 564.004 217.623C564.542 219.223 565.122 220.769 565.619 222.41L566.005 223.624L566.212 224.232C566.212 224.438 566.419 224.949 566.502 225.294C566.802 226.652 566.904 228.046 566.805 229.433C566.604 231.658 566.05 233.838 565.163 235.889C564.436 237.642 563.564 239.331 562.556 240.939C558.814 246.769 554.214 252.002 548.911 256.46L543.82 251.797C547.239 246.755 550.243 241.445 552.802 235.917C553.343 234.674 553.804 233.397 554.181 232.095C554.474 231.121 554.6 230.104 554.554 229.088C554.556 228.871 554.504 228.658 554.402 228.467C554.402 228.467 554.402 228.536 554.333 228.37L554.126 227.832L553.699 226.756C553.147 225.377 552.498 223.887 551.891 222.438C549.408 216.657 546.718 210.877 543.972 205.096L535.694 187.782L548.139 181.477Z" fill="#FF8B7B"/>
<path d="M545.338 250.13L539.088 252.806L545.311 261.429C545.311 261.429 549.836 258.89 550.401 254.462L545.338 250.13Z" fill="#FF8B7B"/>
<path d="M530.642 257.11L537.527 263.566L545.322 261.428L539.099 252.805L530.642 257.11Z" fill="#FF8B7B"/>
<path d="M505.048 138.227C504.896 138.958 504.4 139.468 503.917 139.372C503.434 139.275 503.186 138.599 503.324 137.882C503.462 137.164 503.986 136.64 504.455 136.737C504.924 136.833 505.2 137.496 505.048 138.227Z" fill="#263238"/>
<path d="M504.466 139.481C503.143 141.529 501.546 143.386 499.72 145C500.141 145.46 500.659 145.822 501.236 146.061C501.813 146.299 502.435 146.408 503.058 146.379L504.466 139.481Z" fill="#ED847E"/>
<path d="M508.524 134.735C508.462 134.733 508.4 134.718 508.343 134.692C508.286 134.666 508.235 134.629 508.193 134.583C507.833 134.174 507.382 133.855 506.877 133.651C506.371 133.447 505.825 133.365 505.282 133.41C505.226 133.42 505.168 133.419 505.112 133.407C505.057 133.394 505.004 133.371 504.957 133.339C504.911 133.306 504.871 133.264 504.84 133.216C504.809 133.168 504.788 133.115 504.778 133.058C504.768 133.002 504.77 132.945 504.782 132.889C504.794 132.833 504.817 132.781 504.85 132.734C504.883 132.687 504.924 132.647 504.972 132.617C505.02 132.586 505.074 132.565 505.13 132.555C505.814 132.472 506.508 132.554 507.153 132.794C507.799 133.034 508.378 133.425 508.841 133.935C508.896 133.997 508.932 134.075 508.945 134.157C508.958 134.239 508.947 134.324 508.914 134.4C508.88 134.477 508.826 134.542 508.757 134.589C508.688 134.636 508.607 134.663 508.524 134.666V134.735Z" fill="#263238"/>
<path d="M525.747 148.448C524.367 155.181 523.112 167.501 527.816 171.999C527.816 171.999 525.982 178.814 513.482 178.814C499.686 178.814 506.915 171.999 506.915 171.999C514.406 170.205 514.213 164.631 512.916 159.403L525.747 148.448Z" fill="#FF8B7B"/>
<path d="M531.052 174.138C532.059 171.986 533.191 169.517 530.666 168.854C527.907 168.123 512.8 167.806 507.667 169.572C502.535 171.338 504.177 175.559 504.177 175.559L531.052 174.138Z" fill="#09C973"/>
<path d="M503.362 488.39C502.189 488.39 501.044 488.224 500.602 487.686C500.506 487.546 500.455 487.38 500.455 487.21C500.455 487.04 500.506 486.874 500.602 486.734C500.678 486.608 500.778 486.498 500.896 486.41C501.015 486.322 501.149 486.259 501.292 486.224C502.823 485.81 506.038 487.603 506.162 487.727C506.202 487.747 506.234 487.78 506.254 487.819C506.274 487.859 506.28 487.904 506.273 487.948C506.266 487.991 506.246 488.031 506.217 488.063C506.187 488.095 506.149 488.117 506.107 488.127C505.201 488.29 504.282 488.377 503.362 488.39ZM501.913 486.596C501.771 486.574 501.627 486.574 501.485 486.596C501.396 486.613 501.312 486.649 501.239 486.702C501.165 486.754 501.103 486.821 501.058 486.9C500.906 487.176 500.961 487.3 501.058 487.382C501.485 487.976 503.817 487.989 505.514 487.741C504.393 487.153 503.171 486.783 501.913 486.651V486.596Z" fill="#09C973"/>
<path d="M506.13 488.184H506.034C504.93 487.687 502.722 485.687 502.888 484.652C502.888 484.404 503.109 484.1 503.702 484.045C503.919 484.023 504.138 484.044 504.347 484.108C504.555 484.172 504.749 484.277 504.916 484.418C505.741 485.423 506.225 486.665 506.296 487.963C506.3 488 506.295 488.037 506.281 488.071C506.266 488.105 506.243 488.134 506.213 488.156L506.13 488.184ZM503.881 484.459H503.743C503.357 484.459 503.329 484.652 503.329 484.707C503.219 485.328 504.709 486.901 505.854 487.577C505.743 486.53 505.32 485.54 504.64 484.735C504.426 484.56 504.158 484.463 503.881 484.459Z" fill="#09C973"/>
<path d="M516.261 487.963H507.059L506.148 466.676H515.337L516.261 487.963Z" fill="#FF8B7B"/>
<path d="M582.537 477.822L573.39 478.815L566.492 458.135L575.639 457.141L582.537 477.822Z" fill="#FF8B7B"/>
<path d="M569.204 480.9C568.059 481.204 566.914 481.328 566.445 480.9C566.316 480.788 566.225 480.639 566.186 480.473C566.146 480.307 566.159 480.133 566.224 479.976C566.265 479.833 566.336 479.701 566.431 479.587C566.526 479.473 566.643 479.38 566.776 479.313C568.156 478.527 571.715 479.507 571.867 479.548C571.91 479.561 571.949 479.586 571.978 479.62C572.007 479.654 572.026 479.696 572.032 479.741C572.035 479.786 572.025 479.831 572.003 479.87C571.981 479.909 571.948 479.941 571.908 479.962C571.038 480.359 570.133 480.673 569.204 480.9ZM567.355 479.52C567.217 479.558 567.083 479.609 566.955 479.672C566.876 479.713 566.806 479.77 566.749 479.838C566.692 479.907 566.65 479.987 566.624 480.072C566.541 480.376 566.624 480.486 566.693 480.555C567.259 481.024 569.521 480.458 571.108 479.81C569.887 479.475 568.612 479.381 567.355 479.534V479.52Z" fill="#09C973"/>
<path d="M571.838 479.975C571.838 479.975 571.769 479.975 571.741 479.975C570.541 479.768 567.92 478.388 567.837 477.34C567.837 477.091 567.906 476.747 568.472 476.54C568.67 476.455 568.884 476.411 569.099 476.411C569.315 476.411 569.529 476.455 569.727 476.54C571.107 477.188 571.948 479.52 571.99 479.616C572.01 479.649 572.021 479.687 572.021 479.727C572.021 479.766 572.01 479.804 571.99 479.837L571.838 479.975ZM568.747 476.912H568.609C568.251 477.05 568.265 477.202 568.265 477.257C568.265 477.878 570.155 479.023 571.424 479.409C571.068 478.42 570.412 477.566 569.548 476.967C569.297 476.849 569.012 476.829 568.747 476.912Z" fill="#09C973"/>
<path d="M572.862 477.963L582.781 475.08C582.956 475.026 583.144 475.036 583.313 475.106C583.482 475.177 583.621 475.304 583.706 475.466L587.72 482.875C587.812 483.055 587.862 483.253 587.868 483.455C587.874 483.658 587.835 483.859 587.755 484.044C587.675 484.23 587.555 484.395 587.403 484.529C587.252 484.664 587.073 484.763 586.879 484.82C583.402 485.772 581.664 486.061 577.304 487.317C574.614 488.103 569.164 489.993 565.453 491.07C561.742 492.146 560.197 488.614 561.618 487.841C567.992 484.378 569.965 481.578 571.565 478.998C571.849 478.5 572.313 478.13 572.862 477.963Z" fill="#263238"/>
<path d="M507.11 486.901H517.154C517.338 486.9 517.517 486.963 517.66 487.078C517.803 487.194 517.903 487.355 517.941 487.535L519.762 495.703C519.801 495.905 519.794 496.113 519.743 496.311C519.691 496.51 519.596 496.695 519.463 496.853C519.331 497.01 519.166 497.136 518.978 497.221C518.791 497.306 518.588 497.348 518.382 497.345C514.754 497.276 509.525 497.069 504.972 497.069C499.647 497.069 496.694 497.358 490.5 497.358C486.719 497.358 485.685 493.537 487.258 493.219C494.459 491.647 498.626 491.481 504.848 487.701C505.51 487.224 506.295 486.946 507.11 486.901Z" fill="#263238"/>
<path d="M500.49 188.666C499.276 191.894 497.965 194.722 496.558 197.675C495.151 200.627 493.647 203.455 492.033 206.298C488.762 212.126 484.872 217.584 480.43 222.577C479.837 223.212 479.23 223.846 478.595 224.467C478.292 224.771 477.974 225.088 477.643 225.392L476.567 226.371C475.536 227.296 474.303 227.967 472.966 228.33C471.99 228.587 470.972 228.648 469.972 228.51C469.474 228.445 468.984 228.33 468.51 228.165C468.092 228.016 467.686 227.836 467.296 227.627C466.242 227.046 465.325 226.246 464.606 225.281C464.148 224.693 463.75 224.059 463.419 223.391C462.552 221.57 461.904 219.653 461.488 217.679C461.115 215.941 460.867 214.286 460.646 212.644C459.891 206.235 459.707 199.771 460.094 193.329L466.992 192.832C468.372 198.779 469.752 204.849 471.297 210.478C471.683 211.857 472.138 213.237 472.594 214.506C472.928 215.553 473.392 216.554 473.973 217.486C474.056 217.597 474.139 217.652 474.084 217.486C473.835 217.138 473.503 216.858 473.118 216.672C472.902 216.552 472.675 216.451 472.442 216.369C472.151 216.265 471.851 216.191 471.545 216.148C470.933 216.066 470.31 216.099 469.71 216.245C469.118 216.389 468.563 216.657 468.082 217.031L468.675 216.369C468.91 216.134 469.131 215.886 469.351 215.624C469.793 215.127 470.221 214.589 470.648 214.065C474.147 209.489 477.235 204.614 479.878 199.496C481.258 196.902 482.637 194.226 483.893 191.549C485.148 188.873 486.418 186.031 487.521 183.52L500.49 188.666Z" fill="#FF8B7B"/>
<path d="M544.297 174.068C552.92 176.054 561.625 201.247 561.625 201.247L543.883 213.981C543.883 213.981 538.93 202.24 534.046 191.975C528.942 181.214 535.481 172.054 544.297 174.068Z" fill="#263238"/>
<path d="M492.766 174.552C492.766 174.552 482.984 185.589 492.228 254.033H541.412C541.757 246.486 537.011 209.65 544.295 174.014C538.854 172.971 533.352 172.28 527.822 171.945C520.861 171.537 513.882 171.537 506.921 171.945C502.142 172.444 497.409 173.316 492.766 174.552Z" fill="#263238"/>
<path d="M504.946 183.864C508.036 192.142 493.909 214.051 493.909 214.051L472.911 201.427C478.258 195.334 482.849 188.617 486.583 181.422C493.384 167.267 502.462 177.201 504.946 183.864Z" fill="#263238"/>
<path d="M462.441 197.411L453.625 193.7L458.219 186.512C458.219 186.512 464.469 187.174 466.773 191.286C467.102 191.885 467.197 192.585 467.039 193.251C466.881 193.916 466.481 194.499 465.918 194.886L462.441 197.411Z" fill="#FF8B7B"/>
<path d="M446.461 188.322L454.16 183.231L458.216 186.515L453.622 193.703L446.461 188.322Z" fill="#FF8B7B"/>
<path opacity="0.2" d="M506.148 466.676L506.617 477.658H515.819L515.35 466.676H506.148Z" fill="black"/>
<path opacity="0.2" d="M575.639 457.156L566.492 458.149L570.327 469.614L579.198 467.807L575.639 457.156Z" fill="black"/>
<path d="M529.602 141.607C527.243 150.423 526.304 155.707 520.869 159.377C512.687 164.895 502.492 158.563 502.175 149.223C501.885 140.807 505.803 127.797 515.267 126.031C517.351 125.622 519.505 125.755 521.523 126.416C523.541 127.077 525.356 128.245 526.794 129.807C528.232 131.37 529.245 133.275 529.737 135.341C530.228 137.407 530.182 139.564 529.602 141.607Z" fill="#FF8B7B"/>
<path d="M535.376 136.42C536.59 136.709 539.059 136.53 541.281 131.508C544.357 124.61 530.851 126.542 530.851 126.542C530.851 126.542 543.267 120.913 532.672 115.504C525.774 111.986 523.18 115.242 522.242 117.919C522.518 115.16 521.842 111.49 515.509 113.435C505.852 116.387 512.819 124.031 512.819 124.031C511.802 123.305 510.564 122.959 509.319 123.052C508.074 123.146 506.901 123.672 506.003 124.541C502.913 127.3 505.341 131.205 508.321 134.681C506.542 137.192 505.769 140.2 510.542 141.317C511.396 141.473 512.168 141.92 512.729 142.582C513.29 143.243 513.604 144.079 513.619 144.946C513.619 149.65 513.798 153.486 517.068 156.493C520.338 159.501 531.734 155.21 531.154 148.491C533.929 148.196 536.569 147.141 538.784 145.442C544.661 140.848 537.763 137.399 535.376 136.42Z" fill="#263238"/>
<path d="M517.028 141.757C516.087 143.821 514.492 145.518 512.489 146.586C509.841 147.965 508.351 145.951 508.958 143.302C509.496 140.915 511.524 137.328 514.242 137.039C516.959 136.749 518.118 139.26 517.028 141.757Z" fill="#FF8B7B"/>
<path d="M509.683 254.033C509.683 254.033 520.113 324.326 525.839 350.608C532.116 379.442 565.117 467.725 565.117 467.725L581.672 464.676C581.672 464.676 557.005 381.774 553.417 353.229C549.541 322.243 541.401 253.992 541.401 253.992L509.683 254.033Z" fill="#09C973"/>
<path opacity="0.2" d="M516.284 279.073C528.411 281.446 527.031 326.449 525.651 349.6C522.161 333.237 517.07 301.754 513.593 279.404C514.428 278.995 515.375 278.878 516.284 279.073Z" fill="black"/>
<path d="M492.221 254.031C492.221 254.031 490.952 322.792 491.959 350.84C492.994 380.005 503.175 475.531 503.175 475.531H518.738C518.738 475.531 519.303 381.716 519.993 353.061C520.752 321.84 524.532 254.031 524.532 254.031H492.221Z" fill="#09C973"/>
<path d="M561.347 462.178C561.278 462.178 564.23 468.221 564.23 468.221L582.869 464.8L581.49 459.185L561.347 462.178Z" fill="#263238"/>
<path d="M500.192 469.325C500.123 469.325 501.075 475.795 501.075 475.795H520.032L520.542 470.015L500.192 469.325Z" fill="#263238"/>
<path d="M344.083 487.562H353.961L353.892 464.716H344.027L344.083 487.562Z" fill="#7F3E3B"/>
<path d="M291.645 487.562H301.51L304.779 464.716H294.901L291.645 487.562Z" fill="#7F3E3B"/>
<path d="M302.132 486.433H291.095C290.904 486.428 290.717 486.495 290.572 486.62C290.426 486.745 290.333 486.919 290.309 487.109L289.012 495.87C288.987 496.092 289.009 496.316 289.076 496.529C289.144 496.742 289.255 496.938 289.404 497.105C289.552 497.271 289.734 497.405 289.937 497.496C290.141 497.588 290.362 497.635 290.585 497.636C294.462 497.567 296.324 497.332 301.194 497.332C304.202 497.332 310.396 497.65 314.535 497.65C318.674 497.65 318.922 493.511 317.198 493.18C309.472 491.524 306.437 489.22 303.829 487.04C303.359 486.634 302.754 486.417 302.132 486.433Z" fill="#263238"/>
<path d="M353.845 486.433H343.07C342.876 486.43 342.687 486.496 342.538 486.62C342.389 486.744 342.289 486.917 342.256 487.109L340.78 495.869C340.745 496.077 340.753 496.29 340.805 496.494C340.857 496.699 340.95 496.89 341.08 497.056C341.21 497.223 341.373 497.36 341.559 497.459C341.745 497.559 341.949 497.619 342.159 497.635C346.036 497.566 351.651 497.332 356.535 497.332C362.247 497.332 367.2 497.649 373.891 497.649C377.947 497.649 378.885 493.51 377.174 493.179C369.379 491.496 363.061 491.316 356.204 487.191C355.498 486.736 354.684 486.474 353.845 486.433Z" fill="#263238"/>
<path d="M346.28 175.408L359.759 171.09C359.759 171.09 372.176 205.139 375.763 208.74C380.619 213.638 387.572 226.675 391.408 233.905C390.966 235.519 388.648 239.271 387.269 239.975C377.763 233.16 365.126 220.164 362.435 214.438C356.31 201.428 346.28 175.408 346.28 175.408Z" fill="#7F3E3B"/>
<path d="M343.162 167.986C338.637 176.264 354.586 204.05 354.586 204.05L374.714 194.724C374.714 194.724 370.107 181.741 364.74 170.622C359.635 160.04 348.184 158.826 343.162 167.986Z" fill="#09C973"/>
<path d="M390.556 232.526L400.71 238.693L393.191 249.013C390.055 245.835 387.422 242.197 385.383 238.224L390.556 232.526Z" fill="#7F3E3B"/>
<path d="M408.145 247.384L401.591 252.102L393.203 249.012L400.708 238.692L408.145 247.384Z" fill="#7F3E3B"/>
<path opacity="0.2" d="M353.89 464.716L353.918 476.498H344.053L344.012 464.716H353.89Z" fill="black"/>
<path opacity="0.2" d="M294.908 464.716H304.786L303.103 476.498H293.225L294.908 464.716Z" fill="black"/>
<path d="M356.074 162.386C356.074 162.386 368.49 196.311 358.75 251.813H305.965C305.4 243.701 309.525 200.063 300.764 161.889C306.582 160.76 312.467 160.014 318.382 159.654C325.858 159.219 333.353 159.219 340.829 159.654C345.972 160.175 351.069 161.088 356.074 162.386Z" fill="#09C973"/>
<path d="M328.246 162.577C328.246 162.577 337.158 174.194 335.282 251.812H345.077C345.077 251.812 348.788 185.369 337.848 161.901C334.634 161.857 331.422 162.083 328.246 162.577Z" fill="white"/>
<path opacity="0.2" d="M312.464 171.308C313.499 177.586 311.885 192.624 306.325 209.938C306.055 195.056 304.471 180.228 301.593 165.624V165.555C305.056 165.252 311.485 165.417 312.464 171.308Z" fill="black"/>
<path d="M320.79 138.668C322.391 145.883 323.315 154.837 318.376 159.652C318.376 159.652 321.453 166.978 334.932 166.978C347.196 166.978 340.878 159.652 340.878 159.652C332.779 157.734 332.945 147.773 334.214 142.158L320.79 138.668Z" fill="#7F3E3B"/>
<path d="M318.389 159.032C322.78 162.966 328.119 165.69 333.882 166.937C331.523 168.537 328.487 174.277 328.487 174.277C328.487 174.277 317.092 169.931 314.857 159.556C315.947 159.321 318.389 159.032 318.389 159.032Z" fill="#09C973"/>
<path opacity="0.3" d="M318.389 159.032C322.78 162.966 328.119 165.69 333.882 166.937C331.523 168.537 328.487 174.277 328.487 174.277C328.487 174.277 317.092 169.931 314.857 159.556C315.947 159.321 318.389 159.032 318.389 159.032Z" fill="black"/>
<path d="M339.784 158.757C339.784 158.757 342.916 165.338 337.177 166.869C340.028 168.305 342.419 170.514 344.075 173.243C344.075 173.243 348.131 165.145 343.261 159.309C342.212 159.047 339.784 158.757 339.784 158.757Z" fill="#09C973"/>
<path opacity="0.3" d="M339.784 158.757C339.784 158.757 342.916 165.338 337.177 166.869C340.028 168.305 342.419 170.514 344.075 173.243C344.075 173.243 348.131 165.145 343.261 159.309C342.212 159.047 339.784 158.757 339.784 158.757Z" fill="black"/>
<path opacity="0.2" d="M334.169 142.174C333.171 146.078 333.291 150.185 334.514 154.025C333.368 154.57 332.086 154.762 330.83 154.576C327.878 153.983 326.098 152.631 323.642 147.678C323.435 146.409 321.062 139.939 320.8 138.724L334.169 142.174Z" fill="black"/>
<path d="M344.98 131.274C345.108 132.475 344.994 133.691 344.643 134.847C344.292 136.004 343.712 137.078 342.938 138.006C340.855 140.462 337.93 139.013 336.95 136.075C336.053 133.44 336.067 128.97 338.923 127.59C339.559 127.298 340.257 127.166 340.956 127.207C341.654 127.248 342.332 127.459 342.93 127.823C343.528 128.186 344.028 128.691 344.385 129.293C344.742 129.894 344.946 130.575 344.98 131.274Z" fill="#7F3E3B"/>
<path opacity="0.2" d="M344.98 131.274C345.108 132.475 344.994 133.691 344.643 134.847C344.292 136.004 343.712 137.078 342.938 138.006C340.855 140.462 337.93 139.013 336.95 136.075C336.053 133.44 336.067 128.97 338.923 127.59C339.559 127.298 340.257 127.166 340.956 127.207C341.654 127.248 342.332 127.459 342.93 127.823C343.528 128.186 344.028 128.691 344.385 129.293C344.742 129.894 344.946 130.575 344.98 131.274Z" fill="black"/>
<path d="M314.153 130.914C318.181 139.937 318.775 145 324.721 148.849C333.675 154.685 344.339 147.745 344.326 137.674C344.326 128.624 339.635 114.827 329.481 112.841C318.375 110.757 309.035 119.394 314.153 130.914Z" fill="#7F3E3B"/>
<path d="M312.624 139.343C314.123 141.155 316.172 142.429 318.46 142.971C321.219 143.55 321.702 140.86 320.102 138.211C318.653 135.824 316.101 131.189 313.024 133.286C310.982 134.735 310.651 137.08 312.624 139.343Z" fill="#7F3E3B"/>
<path d="M345.215 137.729C345.519 143.827 351.617 151.525 340.676 153.277C334.966 154.177 329.125 152.923 324.286 149.759C319.499 146.793 318.078 138.432 314.367 132.831C314.201 132.624 314.284 132.376 314.477 132.127C314.7 131.873 314.981 131.676 315.297 131.554C315.612 131.432 315.953 131.388 316.289 131.426C316.625 131.464 316.947 131.583 317.227 131.772C317.507 131.962 317.738 132.216 317.899 132.514C319.14 134.68 321.458 137.839 324.576 138.032C329.35 138.405 344.912 131.493 345.215 137.729Z" fill="#263238"/>
<path d="M324.054 251.811C324.054 251.811 325.433 264.228 327.047 281.045C328.979 300.098 331.366 324.849 332.883 343.708C332.876 343.791 332.876 343.874 332.883 343.957C333.173 347.544 333.421 350.855 333.642 353.973C335.781 384.725 340.761 474.222 340.761 474.222H357.482C357.482 474.222 363.966 382.89 363.663 351.586C363.387 321.455 358.71 251.811 358.71 251.811H324.054Z" fill="#263238"/>
<path d="M339.395 468.345C339.313 468.345 339.644 474.567 339.644 474.567H358.959L359.483 467.572L339.395 468.345Z" fill="#09C973"/>
<path opacity="0.2" d="M327.041 281.046C328.973 300.099 331.359 324.85 332.877 343.709C332.87 343.792 332.87 343.875 332.877 343.958C336.588 326.091 339.982 309.812 336.34 283.254L327.041 281.046Z" fill="black"/>
<path d="M340.003 251.813C340.003 251.813 334.25 323.127 330.208 351.382C325.779 382.327 307.527 474.169 307.527 474.169H289.44C289.44 474.169 299.249 384.769 300.808 354.141C302.505 320.892 305.94 251.772 305.94 251.772L340.003 251.813Z" fill="#263238"/>
<path d="M288.938 468.151C288.869 468.151 288.58 474.567 288.58 474.567H308.446L309.826 467.958L288.938 468.151Z" fill="#09C973"/>
<path d="M329.727 129.426C329.92 130.199 330.472 130.806 330.982 130.64C331.493 130.475 331.741 129.799 331.562 129.026C331.382 128.253 330.817 127.646 330.306 127.812C329.796 127.977 329.548 128.64 329.727 129.426Z" fill="#263238"/>
<path d="M338.439 127.52C338.632 128.307 339.184 128.9 339.694 128.734C340.205 128.569 340.453 127.907 340.274 127.12C340.095 126.334 339.529 125.74 339.018 125.906C338.508 126.072 338.26 126.734 338.439 127.52Z" fill="#263238"/>
<path d="M335.769 128.514C337.256 130.699 339.029 132.675 341.039 134.391C340.601 134.887 340.058 135.28 339.45 135.54C338.841 135.8 338.182 135.921 337.521 135.895L335.769 128.514Z" fill="#630F0F"/>
<path d="M335.786 141.234C335.816 141.226 335.844 141.212 335.869 141.193C335.894 141.174 335.914 141.151 335.93 141.124C335.945 141.097 335.955 141.067 335.959 141.036C335.963 141.005 335.96 140.974 335.952 140.944C335.933 140.886 335.893 140.836 335.839 140.806C335.785 140.775 335.722 140.765 335.662 140.779C334.702 141.036 333.695 141.063 332.722 140.86C331.749 140.656 330.837 140.227 330.061 139.606C330.04 139.585 330.016 139.568 329.988 139.556C329.961 139.545 329.932 139.539 329.902 139.539C329.873 139.539 329.843 139.545 329.816 139.556C329.789 139.568 329.764 139.585 329.744 139.606C329.72 139.627 329.701 139.652 329.688 139.681C329.676 139.709 329.669 139.74 329.669 139.772C329.669 139.803 329.676 139.834 329.688 139.862C329.701 139.891 329.72 139.916 329.744 139.937C330.574 140.62 331.556 141.094 332.607 141.32C333.659 141.546 334.749 141.516 335.786 141.234Z" fill="#7F3E3B"/>
<path d="M326.435 127.149C326.505 127.132 326.569 127.1 326.624 127.054C326.679 127.009 326.723 126.951 326.753 126.887C326.968 126.346 327.311 125.866 327.754 125.489C328.196 125.112 328.724 124.848 329.291 124.721C329.358 124.718 329.424 124.7 329.483 124.67C329.543 124.64 329.595 124.597 329.637 124.545C329.679 124.493 329.709 124.432 329.726 124.367C329.742 124.302 329.744 124.235 329.733 124.169C329.712 124.045 329.645 123.935 329.544 123.86C329.444 123.785 329.319 123.753 329.195 123.769C328.465 123.917 327.785 124.248 327.218 124.73C326.651 125.213 326.215 125.831 325.952 126.528C325.905 126.642 325.903 126.769 325.946 126.885C325.99 127 326.076 127.095 326.187 127.149C326.269 127.167 326.353 127.167 326.435 127.149Z" fill="#263238"/>
<path d="M341.631 123.548C341.696 123.521 341.757 123.484 341.81 123.437C341.898 123.349 341.947 123.23 341.947 123.106C341.947 122.982 341.898 122.863 341.81 122.775C341.326 122.21 340.715 121.767 340.026 121.484C339.338 121.201 338.592 121.086 337.851 121.147C337.728 121.167 337.619 121.235 337.546 121.336C337.474 121.437 337.444 121.562 337.464 121.685C337.488 121.807 337.556 121.916 337.656 121.99C337.755 122.064 337.879 122.098 338.002 122.085C338.591 122.04 339.182 122.135 339.726 122.363C340.271 122.591 340.753 122.945 341.134 123.396C341.195 123.464 341.273 123.515 341.361 123.542C341.449 123.569 341.542 123.571 341.631 123.548Z" fill="#263238"/>
<path d="M295.031 174.8L308.124 180.856C308.124 180.856 295.5 213.029 297.652 217.568C300.591 223.763 302.895 237.518 307.682 244.168C307.434 245.782 305.503 249.686 304.219 250.5C293.748 244.858 283.415 224.287 282.849 218.107C281.552 204.02 295.031 174.8 295.031 174.8Z" fill="#7F3E3B"/>
<path d="M300.761 161.886C291.462 163.266 281.557 195.591 281.557 195.591L304.196 205.566C304.196 205.566 309.715 191.286 313.688 179.849C317.855 167.888 310.75 160.424 300.761 161.886Z" fill="#09C973"/>
<path d="M305.539 488.158C306.201 488.21 306.86 488.029 307.402 487.647C307.569 487.495 307.692 487.301 307.76 487.085C307.828 486.869 307.838 486.64 307.788 486.419C307.783 486.279 307.739 486.142 307.661 486.026C307.583 485.909 307.474 485.816 307.347 485.757C306.215 485.191 303.208 487.137 302.835 487.371C302.798 487.397 302.77 487.433 302.752 487.474C302.735 487.516 302.731 487.561 302.739 487.606C302.751 487.652 302.776 487.694 302.81 487.728C302.843 487.762 302.886 487.786 302.932 487.799C303.785 488.015 304.659 488.135 305.539 488.158ZM306.85 486.116C306.954 486.092 307.063 486.092 307.167 486.116C307.216 486.144 307.257 486.184 307.286 486.232C307.315 486.28 307.331 486.335 307.333 486.392C307.364 486.543 307.356 486.699 307.31 486.846C307.264 486.993 307.182 487.127 307.071 487.233C305.976 487.749 304.722 487.813 303.58 487.413C304.57 486.762 305.683 486.321 306.85 486.116Z" fill="#09C973"/>
<path d="M302.983 487.799C303.019 487.811 303.058 487.811 303.093 487.799C304.073 487.247 305.853 485.039 305.591 483.991C305.545 483.816 305.444 483.66 305.302 483.548C305.16 483.436 304.985 483.373 304.804 483.37C304.629 483.346 304.45 483.361 304.281 483.413C304.112 483.466 303.956 483.555 303.825 483.674C302.749 484.612 302.735 487.454 302.735 487.578C302.735 487.622 302.747 487.666 302.768 487.704C302.79 487.743 302.821 487.775 302.859 487.799H302.983ZM304.68 483.798H304.777C305.094 483.798 305.122 483.977 305.135 484.032C305.315 484.681 304.183 486.323 303.218 487.081C303.201 485.979 303.529 484.898 304.156 483.991C304.3 483.862 304.487 483.793 304.68 483.798Z" fill="#09C973"/>
<path d="M358.013 488.157C358.85 488.236 359.689 488.022 360.386 487.55C360.54 487.407 360.656 487.227 360.724 487.027C360.791 486.827 360.808 486.613 360.772 486.405C360.76 486.276 360.716 486.151 360.643 486.043C360.571 485.934 360.473 485.845 360.358 485.784C359.13 485.108 355.253 487.164 354.84 487.357C354.799 487.383 354.767 487.421 354.747 487.465C354.728 487.509 354.721 487.558 354.729 487.605C354.737 487.654 354.76 487.698 354.795 487.733C354.829 487.768 354.874 487.791 354.922 487.799C355.939 488.012 356.974 488.132 358.013 488.157ZM359.71 486.115C359.861 486.109 360.012 486.138 360.151 486.198C360.196 486.223 360.234 486.258 360.261 486.302C360.287 486.346 360.302 486.395 360.303 486.447C360.33 486.582 360.322 486.722 360.278 486.852C360.235 486.983 360.158 487.1 360.055 487.192C359.475 487.743 357.861 487.826 355.667 487.467C356.926 486.784 358.294 486.327 359.71 486.115Z" fill="#09C973"/>
<path d="M354.955 487.799H355.038C356.21 487.261 358.473 485.136 358.239 484.019C358.239 483.757 357.99 483.426 357.342 483.357C357.112 483.332 356.88 483.355 356.659 483.424C356.438 483.493 356.234 483.606 356.059 483.757C354.858 484.791 354.679 487.454 354.679 487.564C354.679 487.605 354.689 487.646 354.708 487.682C354.728 487.718 354.755 487.749 354.789 487.771C354.839 487.801 354.898 487.811 354.955 487.799ZM357.176 483.798H357.314C357.742 483.798 357.769 484.005 357.783 484.06C357.921 484.736 356.404 486.406 355.217 487.137C355.268 486.027 355.674 484.963 356.376 484.102C356.595 483.903 356.881 483.795 357.176 483.798Z" fill="#09C973"/>
<path d="M306.512 243.989L315.824 245.368L308.926 254.46C308.926 254.46 300.827 252.998 300.717 246.527L306.512 243.989Z" fill="#7F3E3B"/>
<path d="M322.358 251.688L315.736 259.593L308.976 254.447L315.846 245.355L322.358 251.688Z" fill="#7F3E3B"/>
<path d="M218.244 169.393C218.244 169.393 209.276 165.558 202.088 170.152C194.9 174.746 200.805 175.56 192.914 179.161C185.022 182.762 193.838 187.674 192.914 192.309C191.81 197.828 182.553 200.201 187.781 206.644C193.01 213.086 232.385 216.384 236.676 208.368C240.966 200.352 231.157 200.408 233.544 193.592C235.931 186.777 237.158 182.39 230.55 178.127C223.942 173.863 225.721 166.248 218.244 169.393Z" fill="#263238"/>
<path d="M245.816 227.641C246.202 229.876 246.685 232.414 247.196 234.787C247.706 237.16 248.299 239.616 248.975 241.989C250.284 246.731 251.892 251.385 253.79 255.923C254.246 257.068 254.784 258.144 255.28 259.248L255.418 259.552V259.648C255.418 259.648 255.418 259.648 255.349 259.648C255.101 259.468 254.8 259.376 254.494 259.386C254.259 259.386 254.328 259.496 254.563 259.386C254.904 259.28 255.233 259.137 255.542 258.958C256.444 258.432 257.294 257.822 258.081 257.137C261.717 253.844 265.072 250.254 268.111 246.404L272.25 248.928C269.941 253.854 266.975 258.444 263.434 262.573C262.411 263.725 261.274 264.769 260.04 265.691C259.285 266.233 258.476 266.695 257.626 267.071C256.465 267.591 255.2 267.836 253.928 267.788C252.334 267.703 250.813 267.086 249.61 266.036C249.098 265.596 248.635 265.1 248.23 264.56C248.051 264.311 247.899 264.077 247.761 263.842C247.623 263.608 247.527 263.428 247.444 263.277C246.809 262.076 246.064 260.89 245.554 259.676C243.183 254.839 241.217 249.813 239.677 244.651C238.89 242.099 238.173 239.519 237.593 236.912C237.014 234.304 236.476 231.752 236.103 228.91L245.816 227.641Z" fill="#FFB573"/>
<path d="M242.039 216.881C246.026 217.626 249.778 233.575 249.778 233.575L239.445 241.591C239.445 241.591 228.077 225.987 230.822 221.489C233.568 216.992 236.23 215.792 242.039 216.881Z" fill="#263238"/>
<path opacity="0.2" d="M241.919 220.495L245.947 236.554L240.139 241.052L241.919 220.495Z" fill="black"/>
<path d="M272.015 244.046L279.782 242.735L275.243 251.275C275.243 251.275 269.131 251.372 267.214 247.909L267.669 247.095C268.124 246.298 268.749 245.611 269.5 245.084C270.252 244.557 271.11 244.202 272.015 244.046Z" fill="#FFB573"/>
<path d="M286.482 245.025L283.791 252.696L275.238 251.275L279.777 242.735L286.482 245.025Z" fill="#FFB573"/>
<path d="M261.042 488.242L270.23 485.717L265.015 464.291L255.827 466.816L261.042 488.242Z" fill="#FFB573"/>
<path d="M270.233 484.101L259.969 487.081C259.79 487.13 259.635 487.242 259.533 487.397C259.431 487.552 259.39 487.739 259.417 487.923L260.603 496.38C260.641 496.592 260.723 496.794 260.844 496.973C260.966 497.152 261.123 497.302 261.307 497.416C261.491 497.529 261.696 497.602 261.91 497.631C262.124 497.659 262.342 497.642 262.548 497.58C266.108 496.476 267.777 495.773 272.289 494.462C275.048 493.648 283.133 491.62 286.968 490.503C290.803 489.385 289.907 485.536 288.21 485.66C280.594 486.198 274.924 485.55 271.93 484.28C271.403 484.022 270.802 483.959 270.233 484.101Z" fill="#263238"/>
<g opacity="0.2">
<path d="M265.015 464.305L267.692 475.342L258.517 477.867L255.827 466.816L265.015 464.305Z" fill="black"/>
</g>
<path d="M242.054 216.879C242.054 216.879 246.69 218.259 241.13 274.507L202.5 276.935C202.169 261.193 201.576 251.508 192.042 219.749C197.39 218.307 202.835 217.255 208.336 216.603C214.142 215.819 219.998 215.45 225.857 215.5C233.417 215.665 242.054 216.879 242.054 216.879Z" fill="#09C973"/>
<g opacity="0.4">
<path d="M242.054 216.877C242.054 216.877 246.69 218.257 241.13 274.505L202.5 276.933C202.169 261.191 201.576 251.506 192.042 219.747C197.39 218.305 202.835 217.253 208.336 216.601C214.142 215.817 219.998 215.448 225.857 215.498C233.417 215.663 242.054 216.877 242.054 216.877Z" fill="#263238"/>
</g>
<path d="M208.806 196.722C210.268 202.24 212.02 212.546 208.309 216.561C208.309 216.561 210.213 222.176 220.726 221.528C232.246 220.797 225.872 215.457 225.872 215.457C219.498 214.354 219.36 209.677 220.174 205.234L208.806 196.722Z" fill="#FFB573"/>
<path d="M208.329 216.603C214.132 215.819 219.982 215.45 225.837 215.5H226.996C228.555 218.066 229.176 222.122 226.196 228.303C226.196 228.303 210.44 223.088 206.025 216.866L208.329 216.603Z" fill="#FFB573"/>
<path opacity="0.2" d="M213.416 200.201L220.121 205.223C219.919 206.26 219.804 207.312 219.776 208.368C217.361 208.175 213.54 205.885 213.126 203.388C212.89 202.321 212.991 201.208 213.416 200.201Z" fill="black"/>
<path d="M202.114 187.343C204.873 196.379 205.798 200.27 211.551 203.898C220.187 209.348 230.7 204.022 230.728 194.337C230.728 185.632 226.285 172.263 216.448 170.773C214.281 170.423 212.06 170.632 209.996 171.382C207.932 172.132 206.095 173.398 204.658 175.058C203.221 176.719 202.234 178.719 201.788 180.87C201.343 183.02 201.455 185.248 202.114 187.343Z" fill="#FFB573"/>
<path d="M218.206 170.233C219.351 174.607 208.921 190.004 203.099 194.225C197.581 188.169 197.884 180.346 200.271 176.359C202.658 172.372 208.328 168.081 218.206 170.233Z" fill="#263238"/>
<path d="M218.946 170.372C223.568 171.683 228.41 177.16 225.844 176.939C223.278 176.719 212.131 171.78 218.946 170.372Z" fill="#263238"/>
<path d="M241.108 274.547C241.108 274.547 251.952 343.874 255.636 372.667C259.457 402.633 268.866 472.277 268.866 472.277L256.45 475.864C256.45 475.864 238.004 407.613 232.485 378.448C226.484 346.716 212.798 276.355 212.798 276.355L241.108 274.547Z" fill="#09C973"/>
<g opacity="0.2">
<path d="M241.108 274.546C241.108 274.546 251.952 343.873 255.636 372.666C259.457 402.632 268.866 472.276 268.866 472.276L256.45 475.863C256.45 475.863 238.004 407.612 232.485 378.447C226.484 346.715 212.798 276.354 212.798 276.354L241.108 274.546Z" fill="black"/>
</g>
<path d="M255.567 476.583L270.067 472.362L269.791 467.436L253.387 471.589L255.567 476.583Z" fill="#263238"/>
<path d="M232.96 484.144L242.12 486.696L244.576 466.691H235.057L232.96 484.144Z" fill="#FFB573"/>
<path opacity="0.2" d="M233.851 476.639L243.108 478.653L244.571 466.691H235.051L233.851 476.639Z" fill="black"/>
<path d="M242.524 485.771L232.038 482.887C231.856 482.838 231.662 482.85 231.487 482.923C231.313 482.995 231.167 483.123 231.073 483.287L227.844 490.944C227.746 491.133 227.693 491.342 227.689 491.555C227.685 491.767 227.73 491.978 227.821 492.17C227.911 492.363 228.045 492.531 228.212 492.663C228.379 492.795 228.574 492.887 228.782 492.931C232.466 493.869 233.501 494.021 238.123 495.29C240.951 496.063 247.697 499.346 255.009 499.346C258.914 499.346 258.5 495.207 256.858 494.862C249.505 493.262 245.655 489.344 243.889 486.736C243.562 486.264 243.078 485.922 242.524 485.771Z" fill="#263238"/>
<path d="M232.338 275.033C232.338 275.033 269.478 354.362 266.208 379.237C262.221 409.52 245.183 473.314 245.183 473.314L232.2 470.748C232.2 470.748 239.099 406.706 241.775 377.043C244.727 344.719 204.718 319.637 202.193 276.965L232.338 275.033Z" fill="#09C973"/>
<path d="M230.973 473.739L246.135 477.078L247.584 471.905L231.221 468.262L230.973 473.739Z" fill="#263238"/>
<path d="M245.646 488.267C246.434 488.56 247.296 488.589 248.102 488.35C248.301 488.273 248.48 488.15 248.623 487.992C248.767 487.834 248.872 487.645 248.93 487.439C248.975 487.328 248.986 487.205 248.962 487.087C248.937 486.969 248.878 486.861 248.792 486.777C247.923 485.867 243.508 486.653 243.011 486.777C242.963 486.789 242.919 486.813 242.883 486.847C242.846 486.881 242.819 486.923 242.804 486.97C242.793 487.013 242.796 487.058 242.814 487.098C242.832 487.138 242.862 487.171 242.901 487.191C243.778 487.641 244.698 488.001 245.646 488.267ZM248.061 486.888C248.198 486.916 248.326 486.978 248.433 487.067C248.457 487.109 248.47 487.157 248.47 487.205C248.47 487.253 248.457 487.301 248.433 487.343C248.394 487.476 248.325 487.598 248.232 487.701C248.139 487.803 248.024 487.884 247.895 487.936C247.136 488.267 245.591 487.936 243.687 487.039C245.128 486.755 246.605 486.708 248.061 486.901V486.888Z" fill="#09C973"/>
<path d="M242.944 487.164H243.04C244.337 486.985 247.303 485.688 247.566 484.64C247.566 484.391 247.566 484.047 247 483.812C246.557 483.637 246.063 483.637 245.62 483.812C244.432 484.537 243.475 485.585 242.861 486.833C242.84 486.866 242.829 486.905 242.829 486.944C242.829 486.983 242.84 487.021 242.861 487.054L242.944 487.164ZM246.641 484.198H246.779C247.152 484.35 247.11 484.502 247.096 484.557C246.945 485.192 244.848 486.282 243.454 486.613C243.99 485.609 244.798 484.777 245.786 484.212C246.068 484.135 246.368 484.149 246.641 484.253V484.198Z" fill="#09C973"/>
<path d="M217.314 186.323C217.493 187.081 218.031 187.592 218.514 187.468C218.997 187.343 219.259 186.654 219.08 185.909C218.901 185.164 218.376 184.653 217.88 184.764C217.383 184.874 217.135 185.578 217.314 186.323Z" fill="#263238"/>
<path d="M225.77 184.334C225.95 185.079 226.488 185.59 226.984 185.48C227.481 185.369 227.716 184.666 227.55 183.921C227.385 183.176 226.833 182.651 226.336 182.775C225.839 182.9 225.605 183.589 225.77 184.334Z" fill="#263238"/>
<path d="M226.14 182.873L227.809 181.921C227.809 181.921 227.216 183.494 226.14 182.873Z" fill="#263238"/>
<path d="M223.497 186.252C224.561 187.799 225.833 189.191 227.277 190.391C226.963 190.754 226.572 191.044 226.134 191.24C225.695 191.435 225.219 191.532 224.738 191.522L223.497 186.252Z" fill="#ED893E"/>
<path d="M221.33 195.456C221.712 195.427 222.09 195.367 222.462 195.276C222.519 195.26 222.569 195.223 222.599 195.171C222.63 195.12 222.64 195.059 222.627 195.001C222.611 194.943 222.573 194.894 222.522 194.863C222.471 194.832 222.41 194.822 222.351 194.835C221.428 195.075 220.46 195.094 219.528 194.89C218.595 194.687 217.724 194.266 216.985 193.662C216.941 193.623 216.885 193.6 216.826 193.6C216.767 193.6 216.711 193.623 216.667 193.662C216.623 193.706 216.599 193.766 216.599 193.828C216.599 193.89 216.623 193.949 216.667 193.993C217.967 195.078 219.644 195.604 221.33 195.456Z" fill="#263238"/>
<path d="M201.608 196.338C202.625 197.856 204.203 198.908 205.995 199.263C208.382 199.718 209.362 197.552 208.534 195.414C207.789 193.483 205.65 190.93 203.346 191.441C202.845 191.562 202.382 191.807 201.999 192.152C201.616 192.498 201.325 192.933 201.152 193.419C200.98 193.905 200.931 194.427 201.011 194.937C201.09 195.446 201.295 195.928 201.608 196.338Z" fill="#FFB573"/>
<path d="M213.519 185.412C213.613 185.405 213.704 185.368 213.776 185.306C213.848 185.244 213.898 185.16 213.919 185.067C214.184 184.38 214.588 183.754 215.105 183.23C215.623 182.705 216.242 182.293 216.926 182.018C217.038 181.972 217.126 181.884 217.173 181.773C217.22 181.662 217.22 181.536 217.175 181.425C217.153 181.37 217.121 181.32 217.081 181.278C217.04 181.236 216.991 181.202 216.937 181.179C216.883 181.156 216.825 181.144 216.766 181.143C216.708 181.143 216.649 181.154 216.595 181.176C215.775 181.498 215.035 181.992 214.423 182.626C213.811 183.259 213.343 184.016 213.049 184.846C213.033 184.904 213.029 184.965 213.037 185.025C213.044 185.085 213.065 185.142 213.096 185.194C213.127 185.246 213.168 185.29 213.217 185.326C213.266 185.361 213.322 185.385 213.381 185.398L213.519 185.412Z" fill="#263238"/>
<path d="M227.388 179.838C227.465 179.828 227.539 179.801 227.604 179.758C227.668 179.715 227.722 179.657 227.76 179.589C227.809 179.481 227.815 179.358 227.777 179.245C227.739 179.132 227.659 179.038 227.554 178.982C226.915 178.647 226.205 178.473 225.484 178.473C224.763 178.473 224.053 178.647 223.415 178.982C223.365 179.012 223.321 179.051 223.287 179.098C223.252 179.145 223.227 179.198 223.213 179.254C223.199 179.311 223.196 179.369 223.204 179.427C223.213 179.484 223.233 179.539 223.263 179.589C223.323 179.693 223.423 179.769 223.539 179.8C223.655 179.831 223.779 179.815 223.884 179.755C224.388 179.498 224.946 179.364 225.512 179.364C226.078 179.364 226.635 179.498 227.14 179.755C227.216 179.799 227.3 179.827 227.388 179.838Z" fill="#263238"/>
<path d="M197.946 232.622C197.105 237.672 196.277 242.845 195.504 247.964C194.732 253.082 194.042 258.214 193.642 263.291L193.504 265.113C193.466 265.512 193.466 265.914 193.504 266.313C193.651 267.428 193.863 268.534 194.139 269.624C194.746 271.956 195.518 274.384 196.36 276.798C198.002 281.654 199.947 286.524 201.878 291.381L197.629 293.643C194.652 289.157 191.956 284.489 189.558 279.668C188.323 277.189 187.231 274.642 186.289 272.038C185.771 270.618 185.36 269.161 185.061 267.679C184.879 266.77 184.787 265.846 184.785 264.919V262.809C184.923 257.364 185.314 251.988 185.957 246.681C186.564 241.355 187.337 236.113 188.372 230.801L197.946 232.622Z" fill="#FFB573"/>
<path d="M192.074 219.751C188.28 221.13 184.472 234.775 184.472 234.775L200.145 244.557C200.145 244.557 204.918 233.092 202.973 228.208C200.959 223.103 196.392 218.137 192.074 219.751Z" fill="#263238"/>
<path d="M274.136 484.696C274.932 484.538 275.652 484.115 276.178 483.496C276.285 483.322 276.35 483.125 276.366 482.921C276.383 482.717 276.352 482.512 276.274 482.323C276.23 482.207 276.158 482.103 276.064 482.021C275.97 481.94 275.857 481.882 275.736 481.854C274.439 481.564 271.335 484.489 270.976 484.82C270.95 484.859 270.936 484.905 270.936 484.951C270.936 484.998 270.95 485.044 270.976 485.082C270.994 485.125 271.026 485.16 271.065 485.182C271.105 485.205 271.152 485.213 271.197 485.207C272.191 485.133 273.175 484.962 274.136 484.696ZM275.212 482.337C275.353 482.304 275.499 482.304 275.639 482.337C275.688 482.349 275.732 482.373 275.768 482.407C275.804 482.44 275.831 482.483 275.846 482.53C275.908 482.65 275.94 482.782 275.94 482.916C275.94 483.051 275.908 483.183 275.846 483.303C275.433 483.965 273.956 484.489 271.832 484.682C272.817 483.714 273.96 482.921 275.212 482.337Z" fill="#09C973"/>
<path d="M271.189 485.204C271.189 485.204 271.258 485.204 271.272 485.204C272.224 484.404 273.81 481.81 273.341 480.817C273.231 480.582 272.969 480.334 272.348 480.444C272.127 480.483 271.916 480.567 271.729 480.69C271.541 480.814 271.381 480.974 271.258 481.162C270.729 482.398 270.608 483.771 270.913 485.08C270.919 485.119 270.935 485.156 270.959 485.187C270.983 485.219 271.015 485.244 271.051 485.259L271.189 485.204ZM272.293 480.858H272.431C272.831 480.858 272.9 480.941 272.927 480.983C273.217 481.576 272.196 483.549 271.286 484.542C271.062 483.479 271.183 482.372 271.631 481.383C271.779 481.133 272.015 480.946 272.293 480.858Z" fill="#09C973"/>
<path d="M217.678 184.872L219.361 183.934C219.361 183.934 218.768 185.535 217.678 184.872Z" fill="#263238"/>
<path d="M201.805 274.699L201.047 278.218C200.922 278.493 201.254 278.756 201.709 278.728L241.428 276.217C241.773 276.217 242.049 276.01 242.063 275.789L242.187 272.313C242.187 272.078 241.884 271.885 241.497 271.913L202.426 274.382C202.304 274.379 202.184 274.407 202.076 274.462C201.967 274.517 201.874 274.599 201.805 274.699Z" fill="#263238"/>
<path d="M207.353 278.688H206.304C206.097 278.688 205.932 278.605 205.932 278.467L206.139 273.956C206.139 273.818 206.318 273.707 206.525 273.694L207.573 273.625C207.78 273.625 207.946 273.707 207.946 273.845L207.739 278.357C207.725 278.688 207.56 278.688 207.353 278.688Z" fill="#09C973"/>
<path d="M238.497 276.784H237.462C237.241 276.784 237.076 276.688 237.09 276.563L237.297 272.038C237.297 271.914 237.476 271.79 237.683 271.776H238.731C238.938 271.776 239.104 271.859 239.104 271.983L238.897 276.508C238.883 276.646 238.676 276.77 238.497 276.784Z" fill="#09C973"/>
<path d="M222.931 277.764L221.883 277.833C221.676 277.833 221.51 277.75 221.51 277.612L221.731 273.101C221.731 272.963 221.91 272.839 222.117 272.825H223.166C223.373 272.825 223.538 272.908 223.524 273.032L223.318 277.557C223.318 277.626 223.138 277.75 222.931 277.764Z" fill="#09C973"/>
<path d="M201.622 290.456L209.444 297.133L199.883 298.706C199.883 298.706 196.117 293.905 197.703 290.277L201.622 290.456Z" fill="#FFB573"/>
<path d="M211.042 304.985L202.971 305.868L199.894 298.708L209.455 297.135L211.042 304.985Z" fill="#FFB573"/>
<path d="M419.959 152.823C457.905 152.823 488.665 122.062 488.665 84.1172C488.665 46.1721 457.905 15.4114 419.959 15.4114C382.014 15.4114 351.254 46.1721 351.254 84.1172C351.254 122.062 382.014 152.823 419.959 152.823Z" fill="#09C973"/>
<path d="M281.028 56.814L280.118 55.7793C285.674 50.8247 292.857 48.085 300.302 48.0809V49.4606C293.193 49.4641 286.333 52.0813 281.028 56.814Z" fill="#09C973"/>
<path d="M273.172 68.2789L271.875 67.796C272.688 65.6305 273.748 63.5659 275.034 61.6428L276.179 62.4154C274.96 64.2511 273.951 66.2179 273.172 68.2789Z" fill="#09C973"/>
<path d="M318.365 96.5213C328.343 86.5431 328.343 70.3652 318.365 60.387C308.387 50.4088 292.209 50.4087 282.231 60.387C272.253 70.3652 272.253 86.5431 282.231 96.5213C292.209 106.5 308.387 106.5 318.365 96.5213Z" fill="#09C973"/>
<path d="M248.914 145.317C257.569 145.317 264.586 138.3 264.586 129.644C264.586 120.988 257.569 113.971 248.914 113.971C240.258 113.971 233.241 120.988 233.241 129.644C233.241 138.3 240.258 145.317 248.914 145.317Z" fill="#09C973"/>
<path d="M525.148 96.8905C532.013 96.8905 537.578 91.3252 537.578 84.46C537.578 77.5949 532.013 72.0295 525.148 72.0295C518.283 72.0295 512.717 77.5949 512.717 84.46C512.717 91.3252 518.283 96.8905 525.148 96.8905Z" fill="#09C973"/>
<path d="M456.517 72.1956C456.522 65.6216 454.754 59.168 451.399 53.5142C448.045 47.8604 443.228 43.2157 437.456 40.0691C431.684 36.9225 425.17 35.3904 418.601 35.6342C412.031 35.878 405.649 37.8886 400.126 41.4544C394.603 45.0202 390.144 50.0091 387.218 55.896C384.292 61.7828 383.007 68.3497 383.499 74.9053C383.991 81.4609 386.241 87.7625 390.013 93.1467C393.785 98.5309 398.939 102.798 404.932 105.5V111.97H434.981V105.5C441.396 102.612 446.841 97.9327 450.662 92.0247C454.482 86.1167 456.515 79.2312 456.517 72.1956Z" fill="white"/>
<path opacity="0.2" d="M432.373 129.645H407.512L404.919 111.972H434.967L432.373 129.645Z" fill="black"/>
<path opacity="0.4" d="M426.099 132.584H413.821L412.551 129.646H427.369L426.099 132.584Z" fill="black"/>
<path d="M416.053 80.531C415.207 78.0801 413.788 75.8665 411.914 74.0743C407.596 69.7698 402.257 68.3212 399.843 70.777C398.601 72.0186 398.311 74.0191 399.042 76.3921C399.889 78.839 401.308 81.048 403.181 82.835C406.065 85.7322 409.403 87.3326 412.039 87.3326C412.65 87.3396 413.257 87.2368 413.832 87.0291L416.274 112.056C416.295 112.282 416.4 112.493 416.568 112.647C416.737 112.8 416.957 112.884 417.185 112.883H417.267C417.388 112.873 417.506 112.839 417.614 112.782C417.721 112.726 417.816 112.648 417.894 112.554C417.971 112.46 418.028 112.352 418.063 112.236C418.097 112.119 418.108 111.997 418.095 111.876L415.543 85.7874C416.05 85.0193 416.362 84.1388 416.451 83.2226C416.54 82.3064 416.403 81.3823 416.053 80.531ZM404.478 81.5381C402.832 79.9555 401.579 78.0086 400.822 75.854C400.545 75.2455 400.432 74.5749 400.495 73.9091C400.558 73.2433 400.794 72.6057 401.181 72.06C401.445 71.8269 401.754 71.6484 402.087 71.5348C402.421 71.4211 402.774 71.3746 403.126 71.3978C405.099 71.3978 407.969 72.6809 410.659 75.3711C412.312 76.9487 413.565 78.8972 414.315 81.0552C414.595 81.6631 414.71 82.3342 414.647 83.0005C414.584 83.6669 414.345 84.3047 413.956 84.8492C412.521 86.3392 408.383 85.3597 404.478 81.5381Z" fill="#09C973"/>
<path d="M440.024 70.7773C438.769 69.5219 436.782 69.2321 434.409 69.9633C431.986 70.8484 429.785 72.253 427.962 74.0786C426.139 75.9043 424.737 78.1066 423.855 80.5313C423.505 81.3821 423.368 82.3051 423.454 83.2209C423.541 84.1366 423.849 85.0176 424.352 85.7878L421.799 111.877C421.776 112.12 421.85 112.362 422.006 112.551C422.161 112.74 422.384 112.859 422.627 112.884H422.71C422.938 112.885 423.158 112.8 423.326 112.647C423.495 112.494 423.6 112.283 423.621 112.056L426.063 87.0294C426.642 87.2385 427.254 87.3413 427.87 87.3329C430.491 87.3329 433.83 85.7326 436.713 82.8353C438.587 81.0484 440.006 78.8393 440.852 76.3924C441.556 74.0195 441.266 72.019 440.024 70.7773ZM439.086 75.8544C438.334 78.0115 437.081 79.9595 435.43 81.5385C431.609 85.3601 427.442 86.3396 425.952 84.8496C425.563 84.305 425.325 83.6672 425.262 83.0009C425.199 82.3346 425.313 81.6634 425.593 81.0556C426.349 78.9001 427.601 76.9528 429.249 75.3715C430.832 73.7183 432.785 72.4651 434.947 71.7155C435.549 71.5186 436.177 71.4116 436.81 71.3982C437.51 71.3674 438.196 71.6041 438.728 72.0604C439.122 72.608 439.363 73.2507 439.426 73.9225C439.489 74.5942 439.372 75.2706 439.086 75.882V75.8544Z" fill="#09C973"/>
</svg>
